<svg width="46" height="35" viewBox="0 0 46 35" fill="none" xmlns="http://www.w3.org/2000/svg">
<path id="Email-icon" fill-rule="evenodd" clip-rule="evenodd" d="M43.9484 0H1.39294L22.3943 20.3712L43.9484 0ZM0 1.55924V33.7394C2.90024 30.97 6.11407 27.9165 9.00622 25.1973C11.3535 22.9905 13.4929 21.0001 15.0819 19.5598C15.8077 18.9019 16.4248 18.3532 16.897 17.9493L0 1.55924ZM2.06987 34.65H43.7309L26.6638 19.2079L23.1544 22.5247L22.3742 23.2621L21.6044 22.5154L18.3965 19.4038C17.9448 19.7889 17.3322 20.3329 16.59 21.0056C15.0155 22.4328 12.8873 24.4127 10.5424 26.6172C7.82725 29.17 4.82706 32.0189 2.06987 34.65ZM45.43 33.3769V1.47151L28.183 17.7721L45.43 33.3769Z" fill="#F4F7F9"/>
</svg>
