<svg width="40" height="41" viewBox="0 0 40 41" fill="none" xmlns="http://www.w3.org/2000/svg">
<g id="DESIGN" clip-path="url(#clip0_58_28)">
<g id="Group 1">
<path id="Vector" d="M19.8571 0.930054C22.7934 1.01741 25.7881 1.09021 28.7828 1.22125C30.7842 1.30861 32.6833 1.83277 34.4071 2.89564C36.9051 4.43899 38.3805 6.69577 39.0233 9.52039C39.3885 11.122 39.4615 12.7527 39.4762 14.3834C39.5054 18.6203 39.5054 22.8573 39.4762 27.0942C39.4762 28.6958 39.3885 30.3119 39.0233 31.899C38.3221 34.9274 36.7006 37.2861 33.9542 38.8003C32.3765 39.6739 30.6527 40.0816 28.8559 40.2127C25.569 40.4311 22.2821 40.4456 18.9806 40.4165C16.7309 40.4019 14.4666 40.3728 12.217 40.3C10.3179 40.2418 8.43339 40.0234 6.65117 39.2808C3.99245 38.1743 2.1518 36.2669 1.08539 33.6025C0.398796 31.8844 0.238104 30.0935 0.150454 28.2881C-0.0394547 24.3715 0.00437037 20.4694 0.00437037 16.5819C0.00437037 14.8348 0.0920205 13.0876 0.238104 11.3404C0.428013 9.03992 1.14382 6.89961 2.61927 5.07962C4.09471 3.2742 5.97919 2.12397 8.22888 1.59981C9.17842 1.38141 10.1572 1.22125 11.1213 1.19213C14.0138 1.06109 16.9062 1.01741 19.8571 0.930054ZM3.46655 20.6296C3.46655 20.6296 3.52498 20.6296 3.5542 20.6296C3.5542 22.6243 3.52498 24.6044 3.5542 26.5992C3.58342 27.8367 3.62724 29.0743 3.78793 30.2828C4.18236 33.3113 5.76006 35.4516 8.76938 36.3688C9.55824 36.6164 10.4055 36.762 11.2382 36.7911C13.4879 36.893 15.7522 36.9512 18.0019 36.9658C20.7628 36.9804 23.5092 36.9512 26.2702 36.9221C27.6142 36.9076 28.9435 36.8639 30.2583 36.5581C32.245 36.1068 33.8227 35.073 34.8453 33.2967C35.4296 32.2775 35.751 31.171 35.8387 30.0062C35.9409 28.6375 36.0432 27.2689 36.0432 25.9003C36.0578 21.94 36.0578 17.9797 36.014 14.0194C36.014 12.8546 35.8825 11.6753 35.678 10.525C35.2982 8.37016 34.1587 6.69577 32.2012 5.6329C30.9449 4.94859 29.5863 4.67195 28.1693 4.61371C26.0803 4.54091 23.9767 4.46811 21.8877 4.45355C19.0391 4.43899 16.1758 4.46811 13.3272 4.51179C12.027 4.52635 10.7269 4.58459 9.45598 4.86123C6.62196 5.47274 4.76669 7.11801 3.99245 9.92807C3.71489 10.9473 3.61263 12.0101 3.58342 13.0584C3.52498 15.5773 3.49577 18.1107 3.45194 20.6442L3.46655 20.6296Z" fill="#FFFAF3"/>
<path id="Vector_2" d="M19.7941 30.7778C14.1991 30.836 9.62669 26.2206 9.68512 20.615C9.74356 15.0822 14.2575 10.6269 19.8233 10.656C25.4183 10.6851 29.9177 15.1987 29.9031 20.746C29.8885 26.4681 25.17 30.8652 19.7941 30.7778ZM26.4409 20.746C26.4409 17.0624 23.4316 14.063 19.7357 14.063C16.142 14.063 13.1327 17.0769 13.1327 20.6587C13.1327 24.4006 16.0836 27.3417 19.8672 27.3417C23.4608 27.3417 26.4263 24.3569 26.4263 20.746H26.4409Z" fill="#FFFAF3"/>
<path id="Vector_3" d="M32.6643 10.1464C32.6789 11.4423 31.6709 12.476 30.3854 12.4906C29.0998 12.4906 28.0772 11.5151 28.0626 10.2629C28.0334 8.96708 29.0414 7.90421 30.3123 7.88965C31.6271 7.88965 32.6497 8.86516 32.6643 10.1464Z" fill="#FFFAF3"/>
</g>
</g>
<defs>
<clipPath id="clip0_58_28">
<rect width="39.501" height="39.501" fill="white" transform="translate(0 0.930054)"/>
</clipPath>
</defs>
</svg>
