<svg width="35" height="44" viewBox="0 0 35 44" fill="none" xmlns="http://www.w3.org/2000/svg">
<rect width="35" height="44" fill="#1E1E1E"/>
<g clip-path="url(#clip0_0_1)">
<rect x="-961" y="-958" width="1920" height="1080" rx="40" fill="#F9F9F9"/>
<rect x="-961" y="-113" width="1920" height="239" fill="#202020"/>
<path fill-rule="evenodd" clip-rule="evenodd" d="M17.4304 43.3484C11.0722 36.3637 0.257991 26.4486 0.83202 15.6632C1.77116 6.89481 8.84427 0.0799561 17.4304 0.0799561C26.0165 0.0799561 33.0896 6.89481 34.0287 15.6632C34.4246 27.4397 24.6543 35.5884 17.4304 43.3484Z" fill="#F4F7F9"/>
<path d="M24.0486 16.4922C24.0486 20.4291 21.0148 23.6207 17.2723 23.6207C13.5299 23.6207 10.4961 20.4291 10.4961 16.4922C10.4961 12.5552 13.5299 9.36365 17.2723 9.36365C21.0148 9.36365 24.0486 12.5552 24.0486 16.4922Z" fill="#555555" fill-opacity="0.33"/>
</g>
<defs>
<clipPath id="clip0_0_1">
<rect x="-961" y="-958" width="1920" height="1080" rx="40" fill="white"/>
</clipPath>
</defs>
</svg>
