<svg width="53" height="52" viewBox="0 0 53 52" fill="none" xmlns="http://www.w3.org/2000/svg">
<g id="Phone-icon">
<path id="Rectangle 348" d="M16.7467 18.7823C20.0085 27.6805 23.3853 31.2307 31.9758 35.0122L28.2529 40.2408C18.3883 35.518 13.4749 27.557 11.1609 21.3443L16.7467 18.7823Z" fill="#F4F7F9"/>
<path id="Rectangle 349" d="M19.4831 6.49764C21.2273 6.49082 22.5534 7.94213 22.4345 9.58551C22.2474 12.1716 22.4466 14.0375 22.983 16.3503C23.2776 17.6207 22.6111 18.911 21.5518 19.7421C20.1241 20.8623 19.0334 22.2896 18.1665 23.5183C16.965 25.2214 12.83 25.099 11.9155 23.2437C10.0362 19.4308 8.76257 12.4061 11.5069 7.66004C11.938 6.91455 12.806 6.52375 13.7054 6.52023L19.4831 6.49764Z" fill="#F4F7F9"/>
<path id="Rectangle 350" d="M45.9587 34.7135C46.1756 33.079 44.8095 31.6611 43.0677 31.575C40.3267 31.4394 38.3893 31.0282 36.0227 30.2472C34.7227 29.8182 33.2862 30.288 32.2852 31.1811C30.936 32.3849 29.3044 33.2359 27.9086 33.9009C25.9739 34.8226 25.6052 38.7141 27.4455 39.7946C31.2275 42.0151 38.4586 44.054 43.7776 42.0517C44.6131 41.7372 45.1283 40.9705 45.2401 40.1276L45.9587 34.7135Z" fill="#F4F7F9"/>
</g>
</svg>
